<svg width="18" height="18" viewBox="0 0 18 18" fill="none" xmlns="http://www.w3.org/2000/svg">
<path d="M14.8388 2.08736C15.1632 1.9694 15.3305 1.61079 15.2125 1.2864C15.0946 0.962002 14.736 0.794654 14.4116 0.912616L4.00031 4.69853V1.49999C4.00031 1.15481 3.72048 0.874989 3.37531 0.874989H2.12531C1.78013 0.874989 1.50031 1.15481 1.50031 1.49999V5.60763L0.661581 5.91262C0.337185 6.03058 0.169837 6.38918 0.287799 6.71358C0.405761 7.03797 0.764364 7.20532 1.08876 7.08736L14.8388 2.08736Z" fill="#999999"/>
<path fill-rule="evenodd" clip-rule="evenodd" d="M1.5161 8.26209L14.0003 3.72238V6.57363L17.3388 7.78762C17.6632 7.90558 17.8305 8.26418 17.7125 8.58858C17.5946 8.91297 17.236 9.08032 16.9116 8.96236L16.5002 8.81275V15.875H17.1253C17.4705 15.875 17.7503 16.1548 17.7503 16.5C17.7503 16.8452 17.4705 17.125 17.1253 17.125H0.875305C0.530127 17.125 0.250305 16.8452 0.250305 16.5C0.250305 16.1548 0.530127 15.875 0.875305 15.875H1.50031V8.26776L1.5161 8.26209ZM14.0003 15.875V7.90371L15.2502 8.35821V15.875H14.0003ZM6.50031 10.875C6.15513 10.875 5.87531 11.1548 5.87531 11.5V15.25C5.87531 15.5952 6.15513 15.875 6.50031 15.875H9.00031C9.34548 15.875 9.62531 15.5952 9.62531 15.25V11.5C9.62531 11.1548 9.34548 10.875 9.00031 10.875H6.50031Z" fill="#999999"/>
</svg>
