<svg width="21" height="20" viewBox="0 0 21 20" fill="none" xmlns="http://www.w3.org/2000/svg">
<path d="M20.1774 0.578299C19.6774 0.0672987 18.9374 -0.121701 18.2474 0.0782986L2.15742 4.7273C1.42942 4.9293 0.91342 5.5063 0.77442 6.2383C0.63242 6.9843 1.12842 7.9323 1.77642 8.3283L6.80742 11.4003C7.32342 11.7163 7.98942 11.6373 8.41642 11.2093L14.1774 5.4483C14.4674 5.1473 14.9474 5.1473 15.2374 5.4483C15.5274 5.7373 15.5274 6.2083 15.2374 6.5083L9.46642 12.2693C9.03842 12.6973 8.95842 13.3613 9.27342 13.8783L12.3474 18.9283C12.7074 19.5273 13.3274 19.8683 14.0074 19.8683C14.0874 19.8683 14.1774 19.8683 14.2574 19.8573C15.0374 19.7583 15.6574 19.2273 15.8874 18.4773L20.6574 2.5083C20.8674 1.8283 20.6774 1.0883 20.1774 0.578299Z" fill="white"/>
<path opacity="0.4" d="M8.20139 17.1423C8.49339 17.4353 8.49339 17.9103 8.20139 18.2033L6.83539 19.5683C6.68939 19.7153 6.49739 19.7883 6.30539 19.7883C6.11339 19.7883 5.92139 19.7153 5.77539 19.5683C5.48239 19.2753 5.48239 18.8013 5.77539 18.5083L7.14039 17.1423C7.43339 16.8503 7.90839 16.8503 8.20139 17.1423ZM7.41769 13.3543C7.70969 13.6473 7.70969 14.1223 7.41769 14.4153L6.05169 15.7803C5.90569 15.9273 5.71369 16.0003 5.52169 16.0003C5.32969 16.0003 5.13769 15.9273 4.99169 15.7803C4.69869 15.4873 4.69869 15.0133 4.99169 14.7203L6.35669 13.3543C6.64969 13.0623 7.12469 13.0623 7.41769 13.3543ZM3.65649 12.1619C3.94849 12.4549 3.94849 12.9299 3.65649 13.2229L2.29049 14.5879C2.14449 14.7349 1.95249 14.8079 1.76049 14.8079C1.56849 14.8079 1.37649 14.7349 1.23049 14.5879C0.937492 14.2949 0.937492 13.8209 1.23049 13.5279L2.59549 12.1619C2.88849 11.8699 3.36349 11.8699 3.65649 12.1619Z" fill="white"/>
</svg>
