<svg width="40" height="40" viewBox="0 0 40 40" fill="none" xmlns="http://www.w3.org/2000/svg">
<rect width="40" height="40" rx="20" fill="#141414"/>
<path d="M28.3337 14.8333C27.7073 15.105 27.0448 15.2847 26.367 15.3666C27.0821 14.9394 27.6181 14.2672 27.8753 13.4749C27.2033 13.875 26.4676 14.1568 25.7003 14.3083C25.1874 13.7521 24.5045 13.3818 23.7585 13.2556C23.0125 13.1294 22.2458 13.2544 21.5785 13.6109C20.9112 13.9674 20.3811 14.5354 20.0714 15.2256C19.7616 15.9159 19.6897 16.6894 19.867 17.4249C18.5082 17.3562 17.179 17.0024 15.9659 16.3865C14.7527 15.7706 13.6827 14.9063 12.8253 13.8499C12.5246 14.3751 12.3666 14.9698 12.367 15.5749C12.3659 16.1369 12.5038 16.6904 12.7685 17.1862C13.0331 17.682 13.4162 18.1047 13.8837 18.4166C13.3403 18.4018 12.8086 18.256 12.3337 17.9916V18.0333C12.3377 18.8207 12.6137 19.5825 13.1148 20.1899C13.6159 20.7973 14.3114 21.213 15.0837 21.3666C14.7864 21.4571 14.4777 21.5048 14.167 21.5083C13.9519 21.5058 13.7373 21.4862 13.5253 21.4499C13.7453 22.1273 14.1708 22.7192 14.7429 23.1434C15.3149 23.5676 16.005 23.8029 16.717 23.8166C15.5147 24.7627 14.0302 25.279 12.5003 25.2833C12.2218 25.2842 11.9434 25.2675 11.667 25.2333C13.229 26.2418 15.0493 26.7772 16.9087 26.7749C18.1917 26.7883 19.4646 26.5458 20.6529 26.0617C21.8412 25.5775 22.9212 24.8615 23.8297 23.9553C24.7381 23.0492 25.457 21.9711 25.9441 20.784C26.4313 19.5969 26.677 18.3247 26.667 17.0416C26.667 16.8999 26.667 16.7499 26.667 16.5999C27.3209 16.1123 27.8849 15.5145 28.3337 14.8333Z" fill="white"/>
</svg>
