<svg width="18" height="17" viewBox="0 0 18 17" fill="none" xmlns="http://www.w3.org/2000/svg">
<path d="M9 4.25C7.96447 4.25 7.125 5.08947 7.125 6.125C7.125 7.16053 7.96447 8 9 8C10.0355 8 10.875 7.16053 10.875 6.125C10.875 5.08947 10.0355 4.25 9 4.25Z" fill="#999999"/>
<path fill-rule="evenodd" clip-rule="evenodd" d="M0.25 2.0625C0.25 1.19956 0.949555 0.5 1.8125 0.5H16.1875C17.0504 0.5 17.75 1.19956 17.75 2.0625V10.1875C17.75 11.0504 17.0504 11.75 16.1875 11.75H1.8125C0.949555 11.75 0.25 11.0504 0.25 10.1875V2.0625ZM5.875 6.125C5.875 4.39911 7.27411 3 9 3C10.7259 3 12.125 4.39911 12.125 6.125C12.125 7.85089 10.7259 9.25 9 9.25C7.27411 9.25 5.875 7.85089 5.875 6.125ZM14.625 5.5C14.2798 5.5 14 5.77982 14 6.125V6.13125C14 6.47643 14.2798 6.75625 14.625 6.75625H14.6313C14.9764 6.75625 15.2563 6.47643 15.2563 6.13125V6.125C15.2563 5.77982 14.9764 5.5 14.6313 5.5H14.625ZM2.75 6.125C2.75 5.77982 3.02982 5.5 3.375 5.5H3.38125C3.72643 5.5 4.00625 5.77982 4.00625 6.125V6.13125C4.00625 6.47643 3.72643 6.75625 3.38125 6.75625H3.375C3.02982 6.75625 2.75 6.47643 2.75 6.13125V6.125Z" fill="#999999"/>
<path d="M0.875 13C0.529822 13 0.25 13.2798 0.25 13.625C0.25 13.9702 0.529822 14.25 0.875 14.25C5.37504 14.25 9.73353 14.8518 13.8748 15.9791C14.867 16.2491 15.875 15.514 15.875 14.4626V13.625C15.875 13.2798 15.5952 13 15.25 13H0.875Z" fill="#999999"/>
</svg>
