<svg width="17" height="15" viewBox="0 0 17 15" fill="none" xmlns="http://www.w3.org/2000/svg">
<path fill-rule="evenodd" clip-rule="evenodd" d="M16.7979 7.2C16.7979 7.69706 16.3949 8.1 15.8979 8.1L3.13235 8.1L8.12165 12.8513C8.47994 13.1958 8.49112 13.7655 8.1466 14.1238C7.80209 14.4821 7.23235 14.4933 6.87405 14.1488L0.274055 7.84875C0.0975838 7.67907 -0.00214767 7.44482 -0.00214767 7.2C-0.00214767 6.95519 0.0975838 6.72094 0.274055 6.55125L6.87405 0.251251C7.23235 -0.0932628 7.80209 -0.0820914 8.1466 0.276203C8.49112 0.634498 8.47994 1.20424 8.12165 1.54875L3.13235 6.3L15.8979 6.3C16.3949 6.3 16.7979 6.70295 16.7979 7.2Z" fill="white"/>
</svg>
